# xmcd CD database file
#
# Track frame offsets:
#	150
#	18933
#	40734
#	55618
#	85796
#	126344
#	159362
#	188886
#	201342
#	231923
#	258660
#	273520
#	287886
#
# Disc length: 4124 seconds
#
# Revision: 0
# Processed by: cddbd v1.5.2PL0 Copyright (c) Steve Scherf et al.
# Submitted via: CDex 1.51
#
DISCID=b6101a0d
DTITLE=Duke Robillard - Duke`s Box, The Blues And More CD 2
DYEAR=2009
DGENRE=Blues
TTITLE0=Lonesome Woman Blues
TTITLE1=Glamour Girl
TTITLE2=Gee I Wish
TTITLE3=The Lonesome Road
TTITLE4=I`m Still In Love With You
TTITLE5=Train To Texas
TTITLE6=When Your Lover Has Gone
TTITLE7=Hardway
TTITLE8=Red Dog
TTITLE9=I Got It Bad (And That Ain`t Good)
TTITLE10=I Miss My Baby In My Arms
TTITLE11=Jimmie`s Texas Blues
TTITLE12=Undecided
EXTD=YEAR: 2009
EXTT0=
EXTT1=
EXTT2=
EXTT3=
EXTT4=
EXTT5=
EXTT6=
EXTT7=
EXTT8=
EXTT9=
EXTT10=
EXTT11=
EXTT12=
PLAYORDER=
